<?xml version="1.0" standalone="no"?><!DOCTYPE svg PUBLIC "-//W3C//DTD SVG 1.1//EN" "http://www.w3.org/Graphics/SVG/1.1/DTD/svg11.dtd"><svg t="1553004407309" class="icon" style="" viewBox="0 0 1024 1024" version="1.1" xmlns="http://www.w3.org/2000/svg" p-id="5759" xmlns:xlink="http://www.w3.org/1999/xlink" width="128" height="128"><defs><style type="text/css"></style></defs><path d="M512.857643 512m-484.417508 0a484.417508 484.417508 0 1 0 968.835017 0 484.417508 484.417508 0 1 0-968.835017 0Z" fill="#FFC50B" p-id="5760"></path><path d="M512.857643 27.582492c267.205387 0 484.417508 217.212121 484.417509 484.417508s-217.212121 484.417508-484.417509 484.417508" fill="#FF7C10" p-id="5761"></path><path d="M585.261684 265.481481c0 48.26936-37.925926 86.195286-86.195287 86.195287s-86.195286-39.649832-86.195286-86.195287c0-48.26936 39.649832-86.195286 86.195286-86.195286 46.545455-1.723906 86.195286 37.925926 86.195287 86.195286z" fill="#D10D0D" p-id="5762"></path><path d="M512.857643 0C230.137104 0 0.857643 229.279461 0.857643 512s229.279461 512 512 512 510.276094-229.279461 510.276094-512c1.723906-282.720539-227.555556-512-510.276094-512z m-15.515151 867.124579c-48.26936 0-86.195286-39.649832-86.195287-86.195286 0-48.26936 39.649832-86.195286 86.195287-86.195286 48.26936 0 86.195286 39.649832 86.195286 86.195286 1.723906 46.545455-37.925926 86.195286-86.195286 86.195286z m15.515151-355.124579c-115.501684 36.20202-232.727273 72.40404-232.727273 232.727273 0 127.569024 103.434343 232.727273 232.727273 232.727272-256.861953 0-465.454545-208.592593-465.454545-465.454545s208.592593-465.454545 465.454545-465.454545c127.569024 0 232.727273 103.434343 232.727273 232.727272 0 160.323232-117.225589 196.525253-232.727273 232.727273z" fill="#D10D0D" p-id="5763"></path><path d="M512.857643 0v46.545455c120.673401 0 232.727273 103.434343 232.727273 232.727272 0 160.323232-112.053872 196.525253-232.727273 232.727273v182.734007c34.478114 6.895623 72.40404 43.097643 72.404041 84.47138 0 43.097643-37.925926 77.575758-72.404041 86.195286v156.875421c275.824916 0 510.276094-229.279461 510.276094-512 0-280.996633-234.451178-508.552189-510.276094-510.276094z" fill="#8C0000" p-id="5764"></path><path d="M512.857643 179.286195v170.666667c34.478114-6.895623 70.680135-43.097643 70.680135-84.471381 0-43.097643-36.20202-79.299663-70.680135-86.195286z" fill="#8C0000" p-id="5765"></path><path d="M264.946591 237.393729a29.306397 122.395152 45.001 1 0-41.444781-41.446228 29.306397 122.395152 45.001 1 0 41.444781 41.446228Z" fill="#FFDD7D" p-id="5766"></path></svg>